<svg width="500" height="500" viewBox="0 0 500 500" fill="none" xmlns="http://www.w3.org/2000/svg">
<g clip-path="url(#clip0_30_42)">
<path d="M73.0993 0H65.7895C29.4549 0 0 29.4549 0 65.7895V73.0993C0 109.434 29.4549 138.889 65.7895 138.889H73.0993C109.434 138.889 138.889 109.434 138.889 73.0993V65.7895C138.889 29.4549 109.434 0 73.0993 0Z" fill="white"/>
<path d="M73.0993 180.556H65.7895C29.4549 180.556 0 210.011 0 246.345V253.655C0 289.99 29.4549 319.445 65.7895 319.445H73.0993C109.434 319.445 138.889 289.99 138.889 253.655V246.345C138.889 210.011 109.434 180.556 73.0993 180.556Z" fill="white"/>
<path d="M253.655 361.111H246.345C210.01 361.111 180.555 390.566 180.555 426.901V434.211C180.555 470.545 210.01 500 246.345 500H253.655C289.989 500 319.444 470.545 319.444 434.211V426.901C319.444 390.566 289.989 361.111 253.655 361.111Z" fill="white"/>
<path d="M500 430.556C500 392.203 468.909 361.111 430.556 361.111C392.203 361.111 361.111 392.203 361.111 430.556C361.111 468.909 392.203 500 430.556 500C468.909 500 500 468.909 500 430.556Z" fill="white"/>
<path d="M0 426.901C0 390.566 29.4549 361.111 65.7895 361.111H138.889V434.211C138.889 470.545 109.434 500 73.0993 500H65.7895C29.455 500 0 470.545 0 434.211V426.901Z" fill="url(#paint0_linear_30_42)"/>
<path d="M171.935 254.966C171.935 218.631 201.389 189.176 237.724 189.176H310.824V262.276C310.824 298.61 281.369 328.065 245.034 328.065H237.724C201.39 328.065 171.935 298.611 171.935 262.276V254.966Z" fill="url(#paint1_linear_30_42)"/>
<path d="M361.111 138.889H500V250C500 288.353 468.909 319.445 430.555 319.445C392.203 319.445 361.111 288.353 361.111 250V138.889Z" fill="url(#paint2_linear_30_42)"/>
<path d="M180.555 69.4447C180.555 31.0914 211.647 0 250 0H500V138.889H250C211.647 138.889 180.555 107.797 180.555 69.4447Z" fill="url(#paint3_linear_30_42)"/>
</g>
<defs>
<linearGradient id="paint0_linear_30_42" x1="130.697" y1="349.566" x2="12.2757" y2="507.461" gradientUnits="userSpaceOnUse">
<stop stop-color="#536CFF"/>
<stop offset="1" stop-color="#324199"/>
</linearGradient>
<linearGradient id="paint1_linear_30_42" x1="302.632" y1="177.632" x2="184.21" y2="335.526" gradientUnits="userSpaceOnUse">
<stop stop-color="#536CFF"/>
<stop offset="1" stop-color="#324199"/>
</linearGradient>
<linearGradient id="paint2_linear_30_42" x1="480.263" y1="13.1579" x2="289.474" y2="217.105" gradientUnits="userSpaceOnUse">
<stop stop-color="#536CFF"/>
<stop offset="1" stop-color="#324199"/>
</linearGradient>
<linearGradient id="paint3_linear_30_42" x1="480.263" y1="13.1579" x2="289.474" y2="217.105" gradientUnits="userSpaceOnUse">
<stop stop-color="#536CFF"/>
<stop offset="1" stop-color="#324199"/>
</linearGradient>
<clipPath id="clip0_30_42">
<rect width="500" height="500" fill="white"/>
</clipPath>
</defs>
</svg>
