<svg width="338" height="337" viewBox="0 0 338 337" fill="none" xmlns="http://www.w3.org/2000/svg">
<g opacity="0.8">
<path d="M280.197 183.51C271.842 244.901 215.302 287.895 153.911 279.539C92.5201 271.184 49.5262 214.644 57.8814 153.253C66.2366 91.8625 122.777 48.8687 184.168 57.2238C245.558 65.579 288.552 122.119 280.197 183.51Z" fill="url(#paint0_linear_226_113)"/>
<path d="M261.671 180.988C254.708 232.147 207.591 267.976 156.432 261.013C105.273 254.05 69.445 206.934 76.4077 155.775C83.3703 104.616 130.487 68.7874 181.646 75.75C232.805 82.7127 268.633 129.83 261.671 180.988Z" fill="url(#paint1_linear_226_113)"/>
<path opacity="0.8" d="M97.95 154.122C92.1476 149.351 87.4439 144.228 84.0713 140.012C80.4514 135.488 73.676 132.881 74.6068 138.6C75.5677 144.504 79.8087 153.965 83.9832 163.915C91.1379 180.968 84.1665 174.172 82.2013 200.215C80.2361 226.259 91.2731 237.993 102.127 239.47C112.981 240.947 128.522 207.981 128.155 187.467C127.789 166.953 110.733 164.632 97.95 154.122Z" fill="url(#paint2_linear_226_113)"/>
<path opacity="0.8" d="M188.693 119.779C200.279 118.422 206.343 113.971 208.606 111.111C209.177 110.389 209.611 109.562 210.257 108.906C216.735 102.313 235.12 102.979 252.618 120.057C271.001 137.999 278.894 178.374 267.023 178.162C255.151 177.95 244.258 159.624 231.864 152.323C219.47 145.022 217.97 156.046 221.936 170.622C225.902 185.198 214.929 189.319 211.968 200.145C209.007 210.971 189.566 233.59 181.741 225.507C173.916 217.424 178.565 194.195 177.332 181.395C176.099 168.595 158.949 163.453 158.091 147.897C157.233 132.341 172.066 121.727 188.693 119.779Z" fill="url(#paint3_linear_226_113)"/>
<path opacity="0.8" d="M145.001 72.4513C125.472 78.2303 109.218 90.9807 98.2773 102.398C91.0826 109.906 93.6853 122.023 103.958 123.637C113.34 125.112 123.891 123.452 131.658 113.762C148.704 92.4949 158.392 107.966 164.284 99.3327C167.259 94.9751 165.192 87.177 162.116 80.2789C159.188 73.714 151.894 70.4117 145.001 72.4513Z" fill="url(#paint4_linear_226_113)"/>
</g>
<defs>
<linearGradient id="paint0_linear_226_113" x1="184.168" y1="57.2238" x2="153.911" y2="279.539" gradientUnits="userSpaceOnUse">
<stop stop-color="#0047FF" stop-opacity="0.5"/>
<stop offset="1" stop-color="#0047FF" stop-opacity="0"/>
</linearGradient>
<linearGradient id="paint1_linear_226_113" x1="181.646" y1="75.75" x2="156.432" y2="261.013" gradientUnits="userSpaceOnUse">
<stop stop-color="#0047FF" stop-opacity="0.5"/>
<stop offset="1" stop-color="#0047FF" stop-opacity="0"/>
</linearGradient>
<linearGradient id="paint2_linear_226_113" x1="101.255" y1="138.648" x2="87.7991" y2="237.52" gradientUnits="userSpaceOnUse">
<stop stop-color="#0047FF" stop-opacity="0.8"/>
<stop offset="1" stop-color="#0047FF" stop-opacity="0"/>
</linearGradient>
<linearGradient id="paint3_linear_226_113" x1="215.683" y1="103.969" x2="198.664" y2="229.022" gradientUnits="userSpaceOnUse">
<stop stop-color="#0047FF" stop-opacity="0.8"/>
<stop offset="1" stop-color="#0047FF" stop-opacity="0"/>
</linearGradient>
<linearGradient id="paint4_linear_226_113" x1="130.5" y1="69.186" x2="122.74" y2="126.202" gradientUnits="userSpaceOnUse">
<stop stop-color="#0047FF" stop-opacity="0.8"/>
<stop offset="1" stop-color="#0047FF" stop-opacity="0"/>
</linearGradient>
</defs>
</svg>
